<mxfile host="app.diagrams.net" modified="2023-05-02T08:20:35.471Z" agent="Mozilla/5.0 (Windows NT 10.0; Win64; x64) AppleWebKit/537.36 (KHTML, like Gecko) Chrome/112.0.0.0 Safari/537.36" etag="r5U3sXmPvSMb-F9iuZwl" version="21.1.8" type="device">
  <diagram name="Pagina-1" id="pkaaV6WMgQvh1-Uukg3h">
    <mxGraphModel dx="1434" dy="731" grid="1" gridSize="10" guides="1" tooltips="1" connect="1" arrows="1" fold="1" page="1" pageScale="1" pageWidth="827" pageHeight="1169" math="0" shadow="0">
      <root>
        <mxCell id="0" />
        <mxCell id="1" parent="0" />
        <mxCell id="VwgidDlbptWMByYNJ11m-1" value="" style="rounded=0;whiteSpace=wrap;html=1;" vertex="1" parent="1">
          <mxGeometry x="260" y="20" width="240" height="160" as="geometry" />
        </mxCell>
        <mxCell id="VwgidDlbptWMByYNJ11m-2" value="Primary" style="rounded=1;fillColor=#0057D8;strokeColor=none;html=1;whiteSpace=wrap;fontColor=#ffffff;align=center;verticalAlign=middle;fontStyle=0;fontSize=12;sketch=0;" vertex="1" parent="1">
          <mxGeometry x="337" y="60" width="86" height="33" as="geometry" />
        </mxCell>
        <mxCell id="VwgidDlbptWMByYNJ11m-3" value="Primary" style="rounded=1;fillColor=#0057D8;strokeColor=none;html=1;whiteSpace=wrap;fontColor=#ffffff;align=center;verticalAlign=middle;fontStyle=0;fontSize=12;sketch=0;" vertex="1" parent="1">
          <mxGeometry x="337" y="110" width="86" height="33" as="geometry" />
        </mxCell>
        <mxCell id="VwgidDlbptWMByYNJ11m-4" value="" style="rounded=0;whiteSpace=wrap;html=1;" vertex="1" parent="1">
          <mxGeometry x="130" y="240" width="190" height="200" as="geometry" />
        </mxCell>
        <mxCell id="VwgidDlbptWMByYNJ11m-5" value="" style="rounded=0;whiteSpace=wrap;html=1;" vertex="1" parent="1">
          <mxGeometry x="460" y="240" width="190" height="200" as="geometry" />
        </mxCell>
        <mxCell id="VwgidDlbptWMByYNJ11m-6" value="" style="rounded=0;whiteSpace=wrap;html=1;" vertex="1" parent="1">
          <mxGeometry x="150" y="260" width="120" height="40" as="geometry" />
        </mxCell>
        <mxCell id="VwgidDlbptWMByYNJ11m-7" value="" style="rounded=0;whiteSpace=wrap;html=1;" vertex="1" parent="1">
          <mxGeometry x="150" y="310" width="120" height="40" as="geometry" />
        </mxCell>
        <mxCell id="VwgidDlbptWMByYNJ11m-8" value="" style="rounded=0;whiteSpace=wrap;html=1;" vertex="1" parent="1">
          <mxGeometry x="150" y="360" width="160" height="60" as="geometry" />
        </mxCell>
      </root>
    </mxGraphModel>
  </diagram>
</mxfile>
